<?xml version="1.0" encoding="iso-8859-1"?>
<!-- Generator: Adobe Illustrator 18.1.1, SVG Export Plug-In . SVG Version: 6.00 Build 0)  -->
<svg version="1.1" id="Capa_1" xmlns="http://www.w3.org/2000/svg" xmlns:xlink="http://www.w3.org/1999/xlink" x="0px" y="0px"
	 viewBox="0 0 17.006 17.006" style="enable-background:new 0 0 17.006 17.006;" xml:space="preserve">
<g>
	<g>
		<path style="fill:#030104;" d="M11.011,6.689l0.246-0.246c0.221-0.221,0.221-0.58,0-0.801L7.161,1.546
			c-0.221-0.22-0.58-0.221-0.801,0L0.166,7.741c-0.221,0.221-0.221,0.58,0,0.801l4.096,4.096C4.463,12.839,4.778,12.855,5,12.69
			V7.659C5,7.125,5.435,6.69,5.969,6.69h5.042V6.689z M7.892,3.829L8.984,4.92L7.347,6.557L6.255,5.466L7.892,3.829z"/>
		<path style="fill:#030104;" d="M15.769,7.36h-8.76c-0.682,0-1.237,0.555-1.237,1.237v5.792c0,0.682,0.555,1.237,1.237,1.237h8.76
			c0.684,0,1.237-0.556,1.237-1.237V8.597C17.006,7.915,16.452,7.36,15.769,7.36z M16.47,14.39c0,0.386-0.314,0.7-0.701,0.7h-8.76
			c-0.386,0-0.7-0.314-0.7-0.7v-2.896h10.162L16.47,14.39L16.47,14.39z M16.47,10.102H6.308V8.598c0-0.386,0.314-0.701,0.7-0.701
			h8.76c0.387,0,0.701,0.314,0.701,0.701L16.47,10.102L16.47,10.102z"/>
	</g>
</g>
<g>
</g>
<g>
</g>
<g>
</g>
<g>
</g>
<g>
</g>
<g>
</g>
<g>
</g>
<g>
</g>
<g>
</g>
<g>
</g>
<g>
</g>
<g>
</g>
<g>
</g>
<g>
</g>
<g>
</g>
</svg>
