<svg id="_x35_0" enable-background="new 0 0 512 512" height="35" viewBox="0 0 512 512" width="35" xmlns="http://www.w3.org/2000/svg"><g><g><circle cx="256" cy="256" fill="#29a3fb" r="256"/></g><g><g><path d="m462.93 406.75c-46.56 63.8-121.91 105.25-206.93 105.25s-160.37-41.45-206.93-105.25z" fill="#d48d77"/><g fill="#eea47d"><path d="m380.58 406.75v72.95c-6.668 3.708-13.507 7.145-20.48 10.25v-83.2z"/><path d="m462.92 406.75c-4.978 6.838-10.303 13.422-15.94 19.73v-19.73z"/><path d="m200.532 406.75v42.24c0 5.66-4.59 10.25-10.25 10.25-5.65 0-10.24-4.59-10.24-10.25v-42.24z"/><path d="m305.71 437.94v69.23c-6.74 1.33-13.57 2.39-20.49 3.17v-72.4c0-5.65 4.59-10.24 10.24-10.24 5.656.004 10.249 4.576 10.25 10.24z"/><path d="m427.21 434.63v11.68c-6.53 5.9-13.37 11.45-20.49 16.63v-28.31c.528-13.576 19.964-13.571 20.49 0z"/><path d="m248.63 406.75v105.14c-6.849-.186-13.674-.653-20.48-1.39v-103.75z"/><path d="m163.68 460.62v34.23c-6.98-2.7-13.81-5.7-20.48-8.98v-25.25c.518-13.58 19.966-13.573 20.48 0z"/><path d="m95.83 407.27v48.44c-7.145-5.736-13.984-11.856-20.48-18.32v-30.12c0-.17 0-.35.01-.52h20.46c.01.18.01.35.01.52z"/></g></g></g><g><g><path d="m282.896 330.024h-53.792c-9.524 0-17.245 7.721-17.245 17.245v71.037h88.281v-71.037c.001-9.525-7.72-17.245-17.244-17.245z" fill="#334353"/><path d="m357.139 418.305h-202.278c-10.329 0-18.702 8.373-18.702 18.703 0 10.329 8.373 18.703 18.702 18.703h202.279c10.329 0 18.703-8.373 18.703-18.703-.001-10.33-8.374-18.703-18.704-18.703z" fill="#334353"/><path d="m318.361 418.305h-124.722c-6.369 0-11.532 5.163-11.532 11.532 0 6.369 5.163 11.532 11.532 11.532h124.722c6.369 0 11.532-5.163 11.532-11.532-.001-6.369-5.163-11.532-11.532-11.532z" fill="#3e4e60"/><path d="m446.321 126.531v211.03c0 5.754-1.71 11.132-4.665 15.629-3.707 5.754-9.421 10.043-16.173 11.923-2.462.713-5.093 1.089-7.75 1.089h-323.465c-2.709 0-5.287-.376-7.75-1.089-6.752-1.879-12.467-6.169-16.173-11.923-2.955-4.497-4.665-9.875-4.665-15.629v-211.03c0-2.657.376-5.287 1.075-7.75 2.67-9.551 10.173-17.093 19.763-19.763 2.462-.7 5.093-1.076 7.75-1.076h323.465c2.709 0 5.287.376 7.75 1.076 9.551 2.67 17.093 10.173 19.763 19.763.699 2.462 1.075 5.093 1.075 7.75z" fill="#3f5d77"/><path d="m107.37 126.531v211.03c0 5.754-1.711 11.132-4.678 15.629-3.706 5.754-9.421 10.043-16.173 11.923-6.752-1.879-12.467-6.169-16.173-11.923-2.955-4.497-4.665-9.875-4.665-15.629v-211.03c0-13.089 8.786-24.13 20.838-27.513 12.051 3.383 20.851 14.424 20.851 27.513z" fill="#3e4e60"/><path d="m446.321 126.531v211.03c0 5.754-1.71 11.132-4.665 15.629-3.707 5.754-9.421 10.043-16.173 11.923-6.752-1.879-12.467-6.169-16.173-11.923-2.968-4.497-4.678-9.875-4.678-15.629v-211.03c0-13.128 8.838-24.169 20.852-27.513 11.999 3.344 20.837 14.385 20.837 27.513z" fill="#3f6c8e"/><path d="m446.321 307.21v30.351c0 5.754-1.71 11.132-4.665 15.629-3.707 5.754-9.421 10.043-16.173 11.923-2.462.713-5.093 1.089-7.75 1.089h-323.465c-2.709 0-5.287-.376-7.75-1.089-6.752-1.879-12.467-6.169-16.173-11.923-2.955-4.497-4.665-9.875-4.665-15.629v-30.351z" fill="#3e4e60"/><path d="m107.37 307.21v30.351c0 5.754-1.711 11.132-4.678 15.629-3.706 5.754-9.421 10.043-16.173 11.923-6.752-1.879-12.467-6.169-16.173-11.923-2.955-4.497-4.665-9.875-4.665-15.629v-30.351z" fill="#334353"/><path d="m446.321 307.21v30.351c0 5.754-1.71 11.132-4.665 15.629-3.707 5.754-9.421 10.043-16.173 11.923-6.752-1.879-12.467-6.169-16.173-11.923-2.968-4.497-4.678-9.875-4.678-15.629v-30.351z" fill="#3f5d77"/><path d="m278.767 336.705h-45.534c-5.866 0-10.622 4.755-10.622 10.622 0 5.866 4.755 10.622 10.622 10.622h45.534c5.866 0 10.622-4.755 10.622-10.622 0-5.866-4.756-10.622-10.622-10.622z" fill="#334353"/><path d="m340.881 118.788h-135.473c-5.756 0-10.423-4.666-10.423-10.423 0-5.756 4.666-10.423 10.423-10.423h135.473c5.756 0 10.423 4.666 10.423 10.423 0 5.756-4.666 10.423-10.423 10.423z" fill="#3f6c8e"/><g><path d="m407.423 328.995h-302.846c-9.97 0-18.053-8.083-18.053-18.053v-174.102c0-9.97 8.083-18.053 18.053-18.053h302.845c9.97 0 18.053 8.083 18.053 18.053v174.102c0 9.97-8.082 18.053-18.052 18.053z" fill="#fff"/></g></g><g><path d="m291.542 260.863v-45.906c0-4.848-3.93-8.778-8.778-8.778h-45.906c-4.848 0-8.778 3.93-8.778 8.778v45.906c0 4.848 3.93 8.778 8.778 8.778h45.906c4.848 0 8.778-3.93 8.778-8.778z" fill="#e9465e"/><circle cx="216.732" cy="210.764" fill="#f9c744" r="38.622"/><path d="m193.915 196.05c7.303-1.957 13.986 4.726 12.029 12.029l-7.027 26.226-7.027 26.226c-1.957 7.303-11.086 9.749-16.432 4.403l-19.199-19.199-19.199-19.199c-5.346-5.346-2.9-14.475 4.403-16.432l26.226-7.027z" fill="#22bce0"/><path d="m196.423 243.613 2.494-9.308 7.027-26.226c1.957-7.303-4.726-13.986-12.029-12.029l-14.235 3.814c-1.016 3.458-1.57 7.113-1.57 10.9 0 13.878 7.324 26.041 18.313 32.849z" fill="#9acdae"/><path d="m228.08 247.688c15.792-4.848 27.274-19.544 27.274-36.925 0-1.553-.102-3.08-.28-4.585h-18.216c-4.848 0-8.778 3.93-8.778 8.778z" fill="#fb8406"/><circle cx="225.448" cy="190.955" fill="#fad98f" r="11.814"/><path d="m261.135 218.553c0-3.723 3.018-6.74 6.74-6.74h11.293c3.723 0 6.74 3.018 6.74 6.74 0 3.723-3.018 6.74-6.74 6.74h-11.293c-3.723 0-6.74-3.017-6.74-6.74z" fill="#ea7589"/><path d="m143.801 216.535c2.632-2.632 6.9-2.632 9.532 0l7.985 7.985c2.632 2.632 2.632 6.9 0 9.532-2.632 2.632-6.9 2.632-9.532 0l-7.985-7.985c-2.632-2.632-2.632-6.9 0-9.532z" fill="#83d5ef"/></g><g id="Arrow_1_"><path d="m358.355 202.412-30.593 17.241c-1.53.862-2.476 2.482-2.476 4.238s.945 3.375 2.476 4.238l30.593 17.241c1.506.849 3.349.835 4.842-.037 1.494-.873 2.411-2.471 2.411-4.2v-12.377h38.443c2.687 0 4.865-2.178 4.865-4.865s-2.178-4.865-4.865-4.865h-38.443v-12.376c0-1.307-.524-2.54-1.425-3.44-.291-.291-.621-.548-.986-.76-1.492-.872-3.336-.886-4.842-.038z" fill="#6c7ed5"/><path d="m357.334 208.435c1.343 2.327.546 5.302-1.781 6.645l-14.668 8.469c-2.327 1.343-5.302.546-6.645-1.781-1.343-2.327-.546-5.302 1.781-6.645l14.668-8.469c2.327-1.343 5.302-.546 6.645 1.781z" fill="#a2c2eb"/></g><g><g><path d="m277.967 296.275h-19.532c-1.933 0-3.5-1.567-3.5-3.5s1.567-3.5 3.5-3.5h19.532c1.933 0 3.5 1.567 3.5 3.5s-1.568 3.5-3.5 3.5zm-39.064 0h-19.532c-1.933 0-3.5-1.567-3.5-3.5s1.567-3.5 3.5-3.5h19.532c1.933 0 3.5 1.567 3.5 3.5s-1.567 3.5-3.5 3.5zm-39.064 0h-19.532c-1.933 0-3.5-1.567-3.5-3.5s1.567-3.5 3.5-3.5h19.532c1.933 0 3.5 1.567 3.5 3.5s-1.567 3.5-3.5 3.5zm-39.063 0h-19.493c-1.933 0-3.52-1.567-3.52-3.5s1.547-3.5 3.48-3.5h19.532c1.933 0 3.5 1.567 3.5 3.5s-1.566 3.5-3.499 3.5zm136.7-.291c-1.662 0-3.137-1.189-3.441-2.883-.341-1.902.925-3.722 2.827-4.063 5.304-.952 9.716-4.706 11.516-9.797.645-1.823 2.643-2.781 4.466-2.134 1.822.644 2.778 2.644 2.134 4.466-2.636 7.459-9.104 12.959-16.879 14.355-.21.038-.418.056-.623.056zm-172.326-9.101c-1.218 0-2.401-.637-3.046-1.771-1.878-3.304-2.872-7.068-2.872-10.888v-9.952c0-1.933 1.567-3.5 3.5-3.5s3.5 1.567 3.5 3.5v9.952c0 2.608.677 5.176 1.957 7.427.956 1.681.368 3.817-1.312 4.772-.546.312-1.141.46-1.727.46zm187.582-22.387c-1.933 0-3.5-1.567-3.5-3.5v-19.531c0-1.933 1.567-3.5 3.5-3.5s3.5 1.567 3.5 3.5v19.531c0 1.933-1.567 3.5-3.5 3.5zm-190-16.255c-1.933 0-3.5-1.567-3.5-3.5v-19.532c0-1.933 1.567-3.5 3.5-3.5s3.5 1.567 3.5 3.5v19.532c0 1.933-1.566 3.5-3.5 3.5zm190-22.808c-1.933 0-3.5-1.567-3.5-3.5v-19.531c0-1.933 1.567-3.5 3.5-3.5s3.5 1.567 3.5 3.5v19.531c0 1.932-1.567 3.5-3.5 3.5zm-190-16.255c-1.933 0-3.5-1.567-3.5-3.5v-19.532c0-1.933 1.567-3.5 3.5-3.5s3.5 1.567 3.5 3.5v19.532c0 1.932-1.566 3.5-3.5 3.5zm190-22.809c-1.933 0-3.5-1.567-3.5-3.5v-9.99c0-2.598-.671-5.156-1.941-7.399-.952-1.683-.36-3.818 1.321-4.771 1.68-.953 3.816-.361 4.771 1.321 1.864 3.293 2.85 7.045 2.85 10.849v9.99c-.001 1.933-1.568 3.5-3.501 3.5zm-188.958-16.135c-.385 0-.775-.063-1.159-.198-1.824-.641-2.784-2.638-2.144-4.462 2.621-7.466 9.077-12.979 16.851-14.391 1.901-.353 3.724.917 4.069 2.818s-.917 3.724-2.819 4.068c-5.302.963-9.707 4.727-11.495 9.822-.506 1.442-1.858 2.343-3.303 2.343zm170.486-12.405c-.021 0-.058 0-.096-.001h-19.514c-1.933 0-3.5-1.567-3.5-3.5s1.567-3.5 3.5-3.5h19.531c.045 0 .09.001.135.003 1.933 0 3.472 1.565 3.472 3.499 0 1.933-1.596 3.499-3.528 3.499zm-39.142-.001h-19.532c-1.933 0-3.5-1.567-3.5-3.5s1.567-3.5 3.5-3.5h19.532c1.933 0 3.5 1.567 3.5 3.5s-1.567 3.5-3.5 3.5zm-39.063 0h-19.532c-1.933 0-3.5-1.567-3.5-3.5s1.567-3.5 3.5-3.5h19.532c1.933 0 3.5 1.567 3.5 3.5s-1.567 3.5-3.5 3.5zm-39.064 0h-19.532c-1.933 0-3.5-1.567-3.5-3.5s1.567-3.5 3.5-3.5h19.532c1.933 0 3.5 1.567 3.5 3.5s-1.567 3.5-3.5 3.5z" fill="#83d5ef"/></g><g fill="#6c7ed5"><path d="m318.059 139.339h-18.653c-5.336 0-9.662 4.326-9.662 9.662v18.653c0 5.336 4.326 9.662 9.662 9.662h18.653c5.336 0 9.662-4.326 9.662-9.662v-18.653c0-5.336-4.326-9.662-9.662-9.662z"/><path d="m136.059 139.339h-18.653c-5.336 0-9.662 4.326-9.662 9.662v18.653c0 5.336 4.326 9.662 9.662 9.662h18.653c5.336 0 9.662-4.326 9.662-9.662v-18.653c0-5.336-4.326-9.662-9.662-9.662z"/><path d="m318.059 269.786h-18.653c-5.336 0-9.662 4.326-9.662 9.662v18.653c0 5.336 4.326 9.662 9.662 9.662h18.653c5.336 0 9.662-4.326 9.662-9.662v-18.653c0-5.336-4.326-9.662-9.662-9.662z"/><path d="m136.059 269.786h-18.653c-5.336 0-9.662 4.326-9.662 9.662v18.653c0 5.336 4.326 9.662 9.662 9.662h18.653c5.336 0 9.662-4.326 9.662-9.662v-18.653c0-5.336-4.326-9.662-9.662-9.662z"/></g></g></g></g></svg>
