<?xml version="1.0" encoding="iso-8859-1"?>
<!-- Generator: Adobe Illustrator 18.1.1, SVG Export Plug-In . SVG Version: 6.00 Build 0)  -->
<svg version="1.1" id="Capa_1" xmlns="http://www.w3.org/2000/svg" xmlns:xlink="http://www.w3.org/1999/xlink" x="0px" y="0px"
	 viewBox="0 0 27.764 27.764" style="enable-background:new 0 0 27.764 27.764;" xml:space="preserve">
<g>
	<g id="c60_imac">
		<polygon points="16.679,22.015 11.083,22.015 8.285,25.746 8.285,27.613 11.083,27.613 16.679,27.613 19.478,27.613 
			19.478,25.746 		"/>
		<path d="M25.913,0.152H1.853C0.83,0.152,0,0.986,0,2.015v17.092c0,1.029,0.83,1.864,1.853,1.864h24.061
			c1.021,0,1.85-0.835,1.85-1.864V2.015C27.763,0.986,26.935,0.152,25.913,0.152z M14.006,20.291c-0.884,0-1.601-0.718-1.601-1.602
			c0-0.883,0.717-1.6,1.601-1.6s1.601,0.717,1.601,1.6C15.606,19.573,14.89,20.291,14.006,20.291z M14.023,19.677
			c-0.551,0-0.994-0.445-0.994-0.994c0-0.551,0.443-0.994,0.994-0.994c0.549,0,0.994,0.443,0.994,0.994
			C15.018,19.232,14.572,19.677,14.023,19.677z M25.78,16.547H1.985V2.134H25.78V16.547z"/>
	</g>
	<g id="Capa_1_7_">
	</g>
</g>
<g>
</g>
<g>
</g>
<g>
</g>
<g>
</g>
<g>
</g>
<g>
</g>
<g>
</g>
<g>
</g>
<g>
</g>
<g>
</g>
<g>
</g>
<g>
</g>
<g>
</g>
<g>
</g>
<g>
</g>
</svg>
